<?xml version="1.0" encoding="UTF-8"?>
<svg width="48" height="48" version="1.1" viewBox="0 0 12.7 12.7" xmlns="http://www.w3.org/2000/svg">
	<title>BusyDays_Logo</title>
	<g transform="translate(0,-284.3)">
		<path d="m10.597 287.35a5.4022 5.4022 0 0 1-0.27873 6.4672 5.4022 5.4022 0 0 1-6.2832 1.5569 5.4022 5.4022 0 0 1-3.2661-5.5888 5.4022 5.4022 0 0 1 4.4405-4.71" fill="none" stroke="#fff" stroke-linecap="round" stroke-linejoin="round" stroke-width="1.165" style="paint-order:normal"/>
		<text x="3.5079124" y="288.72131" fill="#000000" font-family="sans-serif" font-size="3.175px" font-style="italic" letter-spacing="0px" stroke-width=".26458" word-spacing="0px" style="line-height:1.25" xml:space="preserve"><tspan x="3.5079124" y="291.61795" stroke-width=".26458"/></text>
		<path d="m11.126 287.88a5.4022 5.4022 0 0 1-0.27873 6.4672 5.4022 5.4022 0 0 1-6.2832 1.5569 5.4022 5.4022 0 0 1-3.2661-5.5888 5.4022 5.4022 0 0 1 4.4405-4.71" fill="none" stroke="#000" stroke-linecap="round" stroke-linejoin="round" stroke-width=".965" style="paint-order:normal"/>
	</g>
	<g fill="none" stroke-linecap="round" stroke-linejoin="round" stroke-width="1.065">
		<path d="m3.4913 4.7027 1.7874 3.0959 3.93-6.8069" stroke="#fff"/>
		<path d="m4.0205 4.7027 1.7874 3.0959 3.93-6.8069" stroke="#f00"/>
	</g>
</svg>
